<?xml version="1.0" standalone="no"?>
<!DOCTYPE svg PUBLIC "-//W3C//DTD SVG 20010904//EN"
 "http://www.w3.org/TR/2001/REC-SVG-20010904/DTD/svg10.dtd">
<svg version="1.0" xmlns="http://www.w3.org/2000/svg"
 width="450.000000pt" height="450.000000pt" viewBox="0 0 450.000000 450.000000"
 preserveAspectRatio="xMidYMid meet">
<metadata>
Created by potrace 1.14, written by Peter Selinger 2001-2017
</metadata>
<g transform="translate(0.000000,450.000000) scale(0.100000,-0.100000)"
fill="#000000" stroke="none">
<path d="M367 2743 c-4 -43 -10 -140 -13 -215 l-7 -138 55 0 54 0 23 148 c34
212 16 192 171 192 l130 0 0 -499 0 -498 -46 -7 c-26 -3 -66 -6 -90 -6 -64 0
-74 -7 -74 -51 l0 -39 311 0 310 0 -3 43 c-3 41 -4 42 -43 44 -22 2 -73 5
-112 9 l-73 6 0 499 0 500 137 -3 138 -3 25 -165 26 -165 53 -3 53 -3 -7 198
c-4 109 -9 206 -11 216 -5 16 -38 17 -503 17 l-498 0 -6 -77z"/>
<path d="M1400 2781 c0 -42 1 -43 66 -56 l31 -6 204 -550 204 -550 74 3 75 3
187 545 c202 589 183 547 262 564 24 6 27 11 27 46 l0 40 -180 0 -180 0 0 -39
c0 -36 3 -40 30 -45 17 -3 44 -9 60 -12 17 -3 30 -9 30 -13 0 -3 -56 -182
-124 -396 -68 -215 -130 -416 -137 -448 -7 -32 -15 -60 -19 -62 -4 -2 -15 23
-24 57 -14 49 -267 780 -291 840 -5 13 2 17 37 23 101 15 98 13 98 56 l0 39
-215 0 -215 0 0 -39z"/>
<path d="M2590 2781 c0 -44 -1 -44 113 -56 57 -6 58 -7 53 -33 -3 -15 -29
-233 -58 -485 -29 -252 -55 -462 -58 -468 -4 -5 -33 -13 -66 -17 l-59 -7 -3
-42 -3 -43 211 0 211 0 -3 43 -3 42 -74 7 c-41 4 -75 9 -76 10 -3 3 61 728 80
926 l8 72 168 -504 c92 -278 173 -514 179 -526 10 -18 19 -21 62 -18 l50 3
137 430 c76 237 148 467 161 513 13 45 27 82 30 82 4 0 10 -33 14 -72 4 -40
26 -261 50 -490 l42 -417 -55 -6 c-31 -3 -63 -7 -71 -8 -10 -2 -16 -16 -18
-45 l-3 -42 236 0 236 0 -3 43 -3 42 -65 8 c-35 4 -66 10 -69 12 -2 3 -30 209
-62 458 -32 248 -60 468 -63 489 l-6 36 53 6 c135 17 127 13 127 57 l0 39
-217 -2 -217 -3 -113 -364 c-62 -201 -120 -400 -130 -443 -9 -43 -19 -78 -23
-78 -3 0 -14 33 -23 73 -10 39 -70 240 -134 445 l-117 372 -213 0 -213 0 0
-39z"/>
</g>
</svg>
